<?xml version="1.0" standalone="no"?><!DOCTYPE svg PUBLIC "-//W3C//DTD SVG 1.1//EN" "http://www.w3.org/Graphics/SVG/1.1/DTD/svg11.dtd"><svg t="1602166437083" class="icon" viewBox="0 0 1024 1024" version="1.1" xmlns="http://www.w3.org/2000/svg" p-id="5249" xmlns:xlink="http://www.w3.org/1999/xlink" width="512" height="512"><defs><style type="text/css"></style></defs><path d="M512 0C229.376 0 0 229.376 0 512s229.376 512 512 512 512-229.376 512-512S794.624 0 512 0z m271.36 819.2" fill="#DDE3EF" p-id="5250"></path><path d="M478.208 704.512v154.112h51.2v-154.112c-8.704 0.512-16.896 0.512-25.6 0.512-8.704 0-16.896-0.512-25.6-0.512z m-304.64 91.136l45.568 23.04 72.192-143.872c-16.384-5.12-32.256-11.264-48.128-18.432l-69.632 139.264z m542.72-120.832l72.192 143.872 45.568-23.04-69.632-139.264c-14.848 7.168-30.72 12.8-48.128 18.432zM707.584 348.16c-10.752-102.912-97.792-183.296-203.776-183.296-105.984 0-193.024 80.384-203.776 183.296-93.184 27.648-154.624 73.728-154.624 126.464 0 84.992 160.256 153.6 358.4 153.6s358.4-68.608 358.4-153.6c0-52.224-61.44-98.816-154.624-126.464z m-421.376 177.664c-20.992 0-38.4-17.408-38.4-38.4s17.408-38.4 38.4-38.4 38.4 17.408 38.4 38.4-17.408 38.4-38.4 38.4z m147.968-164.864c4.608-7.68 20.992-6.144 36.352 3.072 15.36 9.216 24.064 23.04 19.456 30.72-4.608 7.68-20.992 6.144-36.352-3.072-15.36-9.216-24.064-23.04-19.456-30.72z m69.632 216.064c-20.992 0-38.4-17.408-38.4-38.4s17.408-38.4 38.4-38.4 38.4 17.408 38.4 38.4-17.408 38.4-38.4 38.4z m50.176-185.344c-15.36 9.216-31.232 10.752-36.352 3.072-4.608-7.68 4.096-21.504 18.944-30.72 15.36-9.216 31.232-10.752 36.352-3.072 4.608 7.68-3.584 21.504-18.944 30.72z m103.424-5.632c-18.944 13.312-47.104 24.064-80.896 30.72 9.216-19.456 15.872-40.96 15.872-64 0-71.168-57.344-89.088-88.576-89.088-30.72 0-88.576 17.92-88.576 89.088 0 23.04 6.656 44.544 15.872 64-33.792-6.656-61.952-17.408-80.896-30.72v-16.384c0-84.48 69.12-153.6 153.6-153.6s153.6 69.12 153.6 153.6v16.384z m64 139.776c-20.992 0-38.4-17.408-38.4-38.4s17.408-38.4 38.4-38.4 38.4 17.408 38.4 38.4-17.408 38.4-38.4 38.4z m0 0" fill="#FFFFFF" p-id="5251"></path></svg>